/* XPM */
static char *_644520854012[] = {
/* columns rows colors chars-per-pixel */
"64 64 4 1 ",
". c gray32",
/* "X c #7C7C7C", */
"X c orange",
"o c #DCB04B",
"0 c Black",
/* pixels */
"0000000000000000000000000000000000000000000000000000000000000000",
"0000000000000000000000000000000000000000000000000000000000000000",
"0000000000000000000000000000000000000000000000000000000000000000",
"00000XXXXXXXXXXX..oXoXXXXXXXXXXXoXXXX..XXXXXXXXXXXXXXXXXXXX00000",
"00000XXXXXXXXXXX..oXoXXXXXXXXXXXoXXXX..XXXXXXXXXXXXXXXXXXXX00000",
"00000XXXXXXXXXXX..oXoXXXXXXXXXXXoXXXX..XXXXXXXXXXXXXXXXXXXX00000",
"00000XXXXXXXXXXX..oXoXXXXXXXXXXXoXXXX..XXXXXXXXXXXXXXXXXXXX00000",
"00000......................................................00000",
"00000XXXXXXXX..XXXXoXoXXXXXX..XXXXXoXXXXXXXX..XXXXXXXXXXXXX00000",
"00000XXXXXXXX..XXXXoXoXXXXXX..XXXXXoXXXXXXXX..XXXXXXXXXXXXX00000",
"00000XXXXXXXX..XXXXoXoXXXXXX..XXXXXoXXXXXXXX..XXXXXXXXXXXXX00000",
"00000XXXXXXXX..XXXXoXoXXXXXX..XXXXXoXXXXXXXX..XXXXXXXXXXXXX00000",
"00000XXXXXXXX..XXXXoXoXXXXXX..XXXXXoXXXXXXXX..XXXXXXXXXXXXX00000",
"00000XXXXXXXX..XXXXoXoXXXXXX..XXXXXoXXXXXXXX..XXXXXXXXXXXXX00000",
"00000XXXXXXXX..XXXXoXoXXXXXX..XXXXXoXXXXXXXX..XXXXXXXXXXXXX00000",
"00000......................................................00000",
"00000XXXXXXXXXXX..oXoXXXXXXXXXXXoXXXX..XXXXXXXXXXXXXXXXXXXX00000",
"00000XXXXXXXXXXX..oXoXXXXXXXXXXXoXXXX..XXXXXXXXXXXXXXXXXXXX00000",
"00000XXXXXXXXXXX..oXoXXXXXXXXXXXoXXXX..XXXXXXXXXXXXXXXXXXXX00000",
"00000XXXXXXXXXXX..oXoXXXXXXXXXXXoXXXX..XXXXXXXXXXXXXXXXXXXX00000",
"00000XXXXXXXXXXX..oXoXXXXXXXXXXXoXXXX..XXXXXXXXXXXXXXXXXXXX00000",
"00000XXXXXXXXXXX..oXoXXXXXXXXXXXoXXXX..XXXXXXXXXXXXXXXXXXXX00000",
"00000XXXXXXXXXXX..oXoXXXXXXXXXXXoXXXX..XXXXXXXXXXXXXXXXXXXX00000",
"00000......................................................00000",
"00000XXXXXXXX..XXXXoXoXXXXXX..XXXXXoXXXXXXXX..XXXXXXXXXXXXX00000",
"00000XXXXXXXX..XXXXoXoXXXXXX..XXXXXoXXXXXXXX..XXXXXXXXXXXXX00000",
"00000XXXXXXXX..XXXXoXoXXXXXX..XXXXXoXXXXXXXX..XXXXXXXXXXXXX00000",
"00000XXXXXXXX..XXXXoXoXXXXXX..XXXXXoXXXXXXXX..XXXXXXXXXXXXX00000",
"00000XXXXXXXX..XXXXoXoXXXXXX..XXXXXoXXXXXXXX..XXXXXXXXXXXXX00000",
"00000XXXXXXXX..XXXXoXoXXXXXX..XXXXXoXXXXXXXX..XXXXXXXXXXXXX00000",
"00000XXXXXXXX..XXXXoXoXXXXXX..XXXXXoXXXXXXXX..XXXXXXXXXXXXX00000",
"00000......................................................00000",
"00000XXXXXXXXXXX..oXoXXXXXXXXXXXoXXXX..XXXXXXXXXXXXXXXXXXXX00000",
"00000XXXXXXXXXXX..oXoXXXXXXXXXXXoXXXX..XXXXXXXXXXXXXXXXXXXX00000",
"00000XXXXXXXXXXX..oXoXXXXXXXXXXXoXXXX..XXXXXXXXXXXXXXXXXXXX00000",
"00000XXXXXXXXXXX..oXoXXXXXXXXXXXoXXXX..XXXXXXXXXXXXXXXXXXXX00000",
"00000XXXXXXXXXXX..oXoXXXXXXXXXXXoXXXX..XXXXXXXXXXXXXXXXXXXX00000",
"00000XXXXXXXXXXX..oXoXXXXXXXXXXXoXXXX..XXXXXXXXXXXXXXXXXXXX00000",
"00000XXXXXXXXXXX..oXoXXXXXXXXXXXoXXXX..XXXXXXXXXXXXXXXXXXXX00000",
"00000......................................................00000",
"00000XXXXXXXX..XXXXoXoXXXXXX..XXXXXoXXXXXXXX..XXXXXXXXXXXXX00000",
"00000XXXXXXXX..XXXXoXoXXXXXX..XXXXXoXXXXXXXX..XXXXXXXXXXXXX00000",
"00000XXXXXXXX..XXXXoXoXXXXXX..XXXXXoXXXXXXXX..XXXXXXXXXXXXX00000",
"00000XXXXXXXX..XXXXoXoXXXXXX..XXXXXoXXXXXXXX..XXXXXXXXXXXXX00000",
"00000XXXXXXXX..XXXXoXoXXXXXX..XXXXXoXXXXXXXX..XXXXXXXXXXXXX00000",
"00000XXXXXXXX..XXXXoXoXXXXXX..XXXXXoXXXXXXXX..XXXXXXXXXXXXX00000",
"00000XXXXXXXX..XXXXoXoXXXXXX..XXXXXoXXXXXXXX..XXXXXXXXXXXXX00000",
"00000......................................................00000",
"00000XXXXXXXXXXX..oXoXXXXXXXXXXXoXXXX..XXXXXXXXXXXXXXXXXXXX00000",
"00000XXXXXXXXXXX..oXoXXXXXXXXXXXoXXXX..XXXXXXXXXXXXXXXXXXXX00000",
"00000XXXXXXXXXXX..oXoXXXXXXXXXXXoXXXX..XXXXXXXXXXXXXXXXXXXX00000",
"00000XXXXXXXXXXX..oXoXXXXXXXXXXXoXXXX..XXXXXXXXXXXXXXXXXXXX00000",
"00000XXXXXXXXXXX..oXoXXXXXXXXXXXoXXXX..XXXXXXXXXXXXXXXXXXXX00000",
"00000XXXXXXXXXXX..oXoXXXXXXXXXXXoXXXX..XXXXXXXXXXXXXXXXXXXX00000",
"00000XXXXXXXXXXX..oXoXXXXXXXXXXXoXXXX..XXXXXXXXXXXXXXXXXXXX00000",
"00000......................................................00000",
"00000XXXXXXXX..XXXXoXoXXXXXX..XXXXXoXXXXXXXX..XXXXXXXXXXXXX00000",
"00000XXXXXXXX..XXXXoXoXXXXXX..XXXXXoXXXXXXXX..XXXXXXXXXXXXX00000",
"00000XXXXXXXX..XXXXoXoXXXXXX..XXXXXoXXXXXXXX..XXXXXXXXXXXXX00000",
"00000XXXXXXXX..XXXXoXoXXXXXX..XXXXXoXXXXXXXX..XXXXXXXXXXXXX00000",
"00000XXXXXXXX..XXXXoXoXXXXXX..XXXXXoXXXXXXXX..XXXXXXXXXXXXX00000",
"0000000000000000000000000000000000000000000000000000000000000000",
"0000000000000000000000000000000000000000000000000000000000000000",
"0000000000000000000000000000000000000000000000000000000000000000"
};