/* XPM */
static char *_644520854012[] = {
/* columns rows colors chars-per-pixel */
"64 64 3 1 ",
". c gray32",
"X c #7C7C7C",
"o c gray58",
/* pixels */
"XXXXXXXXXXXXXXXX..oXoXXXXXXXXXXXoXXXX..XXXXXXXXXXXXXXXXXXXXXXXXX",
"XXXXXXXXXXXXXXXX..oXoXXXXXXXXXXXoXXXX..XXXXXXXXXXXXXXXXXXXXXXXXX",
"XXXXXXXXXXXXXXXX..oXoXXXXXXXXXXXoXXXX..XXXXXXXXXXXXXXXXXXXXXXXXX",
"XXXXXXXXXXXXXXXX..oXoXXXXXXXXXXXoXXXX..XXXXXXXXXXXXXXXXXXXXXXXXX",
"XXXXXXXXXXXXXXXX..oXoXXXXXXXXXXXoXXXX..XXXXXXXXXXXXXXXXXXXXXXXXX",
"XXXXXXXXXXXXXXXX..oXoXXXXXXXXXXXoXXXX..XXXXXXXXXXXXXXXXXXXXXXXXX",
"XXXXXXXXXXXXXXXX..oXoXXXXXXXXXXXoXXXX..XXXXXXXXXXXXXXXXXXXXXXXXX",
"................................................................",
"XXXXXXXX..XXXXXXXXXoXoXXXXXX..XXXXXoXXXXXXXXXXXXXX..XXXXXXXXXXXX",
"XXXXXXXX..XXXXXXXXXoXoXXXXXX..XXXXXoXXXXXXXXXXXXXX..XXXXXXXXXXXX",
"XXXXXXXX..XXXXXXXXXoXoXXXXXX..XXXXXoXXXXXXXXXXXXXX..XXXXXXXXXXXX",
"XXXXXXXX..XXXXXXXXXoXoXXXXXX..XXXXXoXXXXXXXXXXXXXX..XXXXXXXXXXXX",
"XXXXXXXX..XXXXXXXXXoXoXXXXXX..XXXXXoXXXXXXXXXXXXXX..XXXXXXXXXXXX",
"XXXXXXXX..XXXXXXXXXoXoXXXXXX..XXXXXoXXXXXXXXXXXXXX..XXXXXXXXXXXX",
"XXXXXXXX..XXXXXXXXXoXoXXXXXX..XXXXXoXXXXXXXXXXXXXX..XXXXXXXXXXXX",
"................................................................",
"XXXXXXXXXXXXXXXX..oXoXXXXXXXXXXXoXXXX..XXXXXXXXXXXXXXXXXXXXXXXXX",
"XXXXXXXXXXXXXXXX..oXoXXXXXXXXXXXoXXXX..XXXXXXXXXXXXXXXXXXXXXXXXX",
"XXXXXXXXXXXXXXXX..oXoXXXXXXXXXXXoXXXX..XXXXXXXXXXXXXXXXXXXXXXXXX",
"XXXXXXXXXXXXXXXX..oXoXXXXXXXXXXXoXXXX..XXXXXXXXXXXXXXXXXXXXXXXXX",
"XXXXXXXXXXXXXXXX..oXoXXXXXXXXXXXoXXXX..XXXXXXXXXXXXXXXXXXXXXXXXX",
"XXXXXXXXXXXXXXXX..oXoXXXXXXXXXXXoXXXX..XXXXXXXXXXXXXXXXXXXXXXXXX",
"XXXXXXXXXXXXXXXX..oXoXXXXXXXXXXXoXXXX..XXXXXXXXXXXXXXXXXXXXXXXXX",
"................................................................",
"XXXXXXXX..XXXXXXXXXoXoXXXXXX..XXXXXoXXXXXXXXXXXXXX..XXXXXXXXXXXX",
"XXXXXXXX..XXXXXXXXXoXoXXXXXX..XXXXXoXXXXXXXXXXXXXX..XXXXXXXXXXXX",
"XXXXXXXX..XXXXXXXXXoXoXXXXXX..XXXXXoXXXXXXXXXXXXXX..XXXXXXXXXXXX",
"XXXXXXXX..XXXXXXXXXoXoXXXXXX..XXXXXoXXXXXXXXXXXXXX..XXXXXXXXXXXX",
"XXXXXXXX..XXXXXXXXXoXoXXXXXX..XXXXXoXXXXXXXXXXXXXX..XXXXXXXXXXXX",
"XXXXXXXX..XXXXXXXXXoXoXXXXXX..XXXXXoXXXXXXXXXXXXXX..XXXXXXXXXXXX",
"XXXXXXXX..XXXXXXXXXoXoXXXXXX..XXXXXoXXXXXXXXXXXXXX..XXXXXXXXXXXX",
"................................................................",
"XXXXXXXXXXXXXXXX..oXoXXXXXXXXXXXoXXXX..XXXXXXXXXXXXXXXXXXXXXXXXX",
"XXXXXXXXXXXXXXXX..oXoXXXXXXXXXXXoXXXX..XXXXXXXXXXXXXXXXXXXXXXXXX",
"XXXXXXXXXXXXXXXX..oXoXXXXXXXXXXXoXXXX..XXXXXXXXXXXXXXXXXXXXXXXXX",
"XXXXXXXXXXXXXXXX..oXoXXXXXXXXXXXoXXXX..XXXXXXXXXXXXXXXXXXXXXXXXX",
"XXXXXXXXXXXXXXXX..oXoXXXXXXXXXXXoXXXX..XXXXXXXXXXXXXXXXXXXXXXXXX",
"XXXXXXXXXXXXXXXX..oXoXXXXXXXXXXXoXXXX..XXXXXXXXXXXXXXXXXXXXXXXXX",
"XXXXXXXXXXXXXXXX..oXoXXXXXXXXXXXoXXXX..XXXXXXXXXXXXXXXXXXXXXXXXX",
"................................................................",
"XXXXXXXX..XXXXXXXXXoXoXXXXXX..XXXXXoXXXXXXXXXXXXXX..XXXXXXXXXXXX",
"XXXXXXXX..XXXXXXXXXoXoXXXXXX..XXXXXoXXXXXXXXXXXXXX..XXXXXXXXXXXX",
"XXXXXXXX..XXXXXXXXXoXoXXXXXX..XXXXXoXXXXXXXXXXXXXX..XXXXXXXXXXXX",
"XXXXXXXX..XXXXXXXXXoXoXXXXXX..XXXXXoXXXXXXXXXXXXXX..XXXXXXXXXXXX",
"XXXXXXXX..XXXXXXXXXoXoXXXXXX..XXXXXoXXXXXXXXXXXXXX..XXXXXXXXXXXX",
"XXXXXXXX..XXXXXXXXXoXoXXXXXX..XXXXXoXXXXXXXXXXXXXX..XXXXXXXXXXXX",
"XXXXXXXX..XXXXXXXXXoXoXXXXXX..XXXXXoXXXXXXXXXXXXXX..XXXXXXXXXXXX",
"................................................................",
"XXXXXXXXXXXXXXXX..oXoXXXXXXXXXXXoXXXX..XXXXXXXXXXXXXXXXXXXXXXXXX",
"XXXXXXXXXXXXXXXX..oXoXXXXXXXXXXXoXXXX..XXXXXXXXXXXXXXXXXXXXXXXXX",
"XXXXXXXXXXXXXXXX..oXoXXXXXXXXXXXoXXXX..XXXXXXXXXXXXXXXXXXXXXXXXX",
"XXXXXXXXXXXXXXXX..oXoXXXXXXXXXXXoXXXX..XXXXXXXXXXXXXXXXXXXXXXXXX",
"XXXXXXXXXXXXXXXX..oXoXXXXXXXXXXXoXXXX..XXXXXXXXXXXXXXXXXXXXXXXXX",
"XXXXXXXXXXXXXXXX..oXoXXXXXXXXXXXoXXXX..XXXXXXXXXXXXXXXXXXXXXXXXX",
"XXXXXXXXXXXXXXXX..oXoXXXXXXXXXXXoXXXX..XXXXXXXXXXXXXXXXXXXXXXXXX",
"................................................................",
"XXXXXXXX..XXXXXXXXXoXoXXXXXX..XXXXXoXXXXXXXXXXXXXX..XXXXXXXXXXXX",
"XXXXXXXX..XXXXXXXXXoXoXXXXXX..XXXXXoXXXXXXXXXXXXXX..XXXXXXXXXXXX",
"XXXXXXXX..XXXXXXXXXoXoXXXXXX..XXXXXoXXXXXXXXXXXXXX..XXXXXXXXXXXX",
"XXXXXXXX..XXXXXXXXXoXoXXXXXX..XXXXXoXXXXXXXXXXXXXX..XXXXXXXXXXXX",
"XXXXXXXX..XXXXXXXXXoXoXXXXXX..XXXXXoXXXXXXXXXXXXXX..XXXXXXXXXXXX",
"XXXXXXXX..XXXXXXXXXoXoXXXXXX..XXXXXoXXXXXXXXXXXXXX..XXXXXXXXXXXX",
"XXXXXXXX..XXXXXXXXXoXoXXXXXX..XXXXXoXXXXXXXXXXXXXX..XXXXXXXXXXXX",
"XXXXXXXX..XXXXXXXXXoXoXXXXXX..XXXXXoXXXXXXXXXXXXXX..XXXXXXXXXXXX"
};